# xmcd
#
# Track frame offsets: 
#        150
#        32518
#        48761
#        73772
#        92746
#        111523
#        130350
#        143610
#        157052
#        173919
#        191946
#        203981
#        222287
#        243011
#        262973
#        282424
#        302098
#        314547
#
# Disc length: 4445 seconds
#
# Revision: 0
# Processed by: cddbd v1.5.2PL0 Copyright (c) Steve Scherf et al.
# Submitted via: ExactAudioCopy v0.95b3
#
DISCID=10115b12
DTITLE=Jimi Hendrix  - Axis - Bold As Love - The Sessions (ATM 160) - 
DTITLE=Disc 3
DYEAR=1900
DGENRE=
TTITLE0=Bold As Love
TTITLE1=Bold As Love
TTITLE2=Bold As Love
TTITLE3=Bold As Love
TTITLE4=Bold As Love
TTITLE5=Bold As Love
TTITLE6=Mr. Bad Luck
TTITLE7=Mr. Bad Luck
TTITLE8=Taking Care Of No Business
TTITLE9=Taking Care Of No Business
TTITLE10=Cat Talkin' To Me
TTITLE11=Stars That Play With Laughing Sam's Dice
TTITLE12=Stars That Play With Laughing Sam's Dice
TTITLE13=Stars That Play With Laughing Sam's Dice
TTITLE14=Stars That Play With Laughing Sam's Dice
TTITLE15=Stars That Play With Laughing Sam's Dice
TTITLE16=Angel
TTITLE17=Angel
EXTD=
EXTT0=
EXTT1=
EXTT2=
EXTT3=
EXTT4=
EXTT5=
EXTT6=
EXTT7=
EXTT8=
EXTT9=
EXTT10=
EXTT11=
EXTT12=
EXTT13=
EXTT14=
EXTT15=
EXTT16=
EXTT17=
PLAYORDER=
